<svg width="16" height="8" viewBox="0 0 16 8" fill="none" xmlns="http://www.w3.org/2000/svg">
<path d="M7.53439 0.17561L7.64021 0.097561L7.74603 0.0585366L7.87302 0.0195122L8 0L8.12698 0.0195122L8.25397 0.0585366L8.35979 0.097561L8.46561 0.17561L15.8095 6.94634L15.8942 7.0439L15.9577 7.14146L15.9788 7.25854L16 7.37561L15.9788 7.49268L15.9577 7.60976L15.8942 7.72683L15.8095 7.80488L15.7037 7.88293L15.5767 7.94146L15.4709 7.98049L15.3228 8L15.1958 7.98049L15.0899 7.94146L14.963 7.88293L14.8571 7.80488L8 1.48293L1.14286 7.80488L1.03704 7.90244L0.910053 7.94146L0.804233 7.98049L0.677249 8L0.529101 7.98049L0.42328 7.94146L0.296296 7.90244L0.190476 7.80488L0.10582 7.72683L0.042328 7.60976L0.021164 7.49268L0 7.37561L0.021164 7.25854L0.042328 7.14146L0.10582 7.0439L0.190476 6.94634L7.53439 0.17561Z" fill="#605E5C"/>
</svg>
