<svg width="160" height="65" viewBox="0 0 160 65" fill="none" xmlns="http://www.w3.org/2000/svg">
<rect width="160" height="65" rx="32.5" fill="#675B5B" fill-opacity="0.61"/>
<path d="M37.6932 17.576C39.1865 17.576 40.2745 17.8693 40.9572 18.456C41.6399 19.0427 41.9812 19.8693 41.9812 20.936C41.9812 21.4053 41.9012 21.8587 41.7412 22.296C41.5919 22.7227 41.3412 23.1067 40.9892 23.448C40.6372 23.7893 40.1679 24.0613 39.5812 24.264C38.9945 24.456 38.2745 24.552 37.4212 24.552H36.1092V29H34.6692V17.576H37.6932ZM37.5652 18.808H36.1092V23.32H37.2612C37.9865 23.32 38.5892 23.2453 39.0692 23.096C39.5492 22.936 39.9065 22.6853 40.1412 22.344C40.3759 22.0027 40.4932 21.5547 40.4932 21C40.4932 20.264 40.2585 19.7147 39.7892 19.352C39.3199 18.9893 38.5785 18.808 37.5652 18.808ZM47.4127 20.28C48.458 20.28 49.2314 20.5093 49.7327 20.968C50.234 21.4267 50.4847 22.1573 50.4847 23.16V29H49.4607L49.1887 27.784H49.1247C48.8794 28.0933 48.6234 28.3547 48.3567 28.568C48.1007 28.7707 47.802 28.92 47.4607 29.016C47.13 29.112 46.7247 29.16 46.2447 29.16C45.7327 29.16 45.2687 29.0693 44.8527 28.888C44.4474 28.7067 44.1274 28.4293 43.8927 28.056C43.658 27.672 43.5407 27.192 43.5407 26.616C43.5407 25.7627 43.8767 25.1067 44.5487 24.648C45.2207 24.1787 46.2554 23.9227 47.6527 23.88L49.1087 23.832V23.32C49.1087 22.6053 48.954 22.1093 48.6447 21.832C48.3354 21.5547 47.898 21.416 47.3327 21.416C46.8847 21.416 46.458 21.4853 46.0527 21.624C45.6474 21.752 45.2687 21.9013 44.9167 22.072L44.4847 21.016C44.858 20.8133 45.3007 20.6427 45.8127 20.504C46.3247 20.3547 46.858 20.28 47.4127 20.28ZM47.8287 24.856C46.762 24.8987 46.0207 25.0693 45.6047 25.368C45.1994 25.6667 44.9967 26.088 44.9967 26.632C44.9967 27.112 45.1407 27.464 45.4287 27.688C45.7274 27.912 46.106 28.024 46.5647 28.024C47.29 28.024 47.8927 27.8267 48.3727 27.432C48.8527 27.0267 49.0927 26.408 49.0927 25.576V24.808L47.8287 24.856ZM56.5734 29.16C55.8161 29.16 55.1388 29.0053 54.5414 28.696C53.9548 28.3867 53.4908 27.9067 53.1494 27.256C52.8188 26.6053 52.6534 25.7733 52.6534 24.76C52.6534 23.704 52.8294 22.8453 53.1814 22.184C53.5334 21.5227 54.0081 21.0373 54.6054 20.728C55.2134 20.4187 55.9014 20.264 56.6694 20.264C57.1068 20.264 57.5281 20.312 57.9334 20.408C58.3388 20.4933 58.6694 20.6 58.9254 20.728L58.4934 21.896C58.2374 21.8 57.9388 21.7093 57.5974 21.624C57.2561 21.5387 56.9361 21.496 56.6374 21.496C56.0614 21.496 55.5868 21.6187 55.2134 21.864C54.8401 22.1093 54.5628 22.472 54.3814 22.952C54.2001 23.432 54.1094 24.0293 54.1094 24.744C54.1094 25.4267 54.2001 26.008 54.3814 26.488C54.5628 26.968 54.8348 27.3307 55.1974 27.576C55.5601 27.8213 56.0134 27.944 56.5574 27.944C57.0268 27.944 57.4374 27.896 57.7894 27.8C58.1521 27.704 58.4828 27.5867 58.7814 27.448V28.696C58.4934 28.8453 58.1734 28.9573 57.8214 29.032C57.4801 29.1173 57.0641 29.16 56.5734 29.16ZM68.0689 20.424V29H66.6609V21.624H62.2289V29H60.8209V20.424H68.0689ZM72.1333 25.656C72.1333 25.752 72.128 25.8907 72.1173 26.072C72.1173 26.2427 72.112 26.4293 72.1013 26.632C72.0906 26.824 72.08 27.0107 72.0693 27.192C72.0586 27.3627 72.048 27.5013 72.0373 27.608L76.6293 20.424H78.3573V29H77.0453V23.944C77.0453 23.7733 77.0453 23.5493 77.0453 23.272C77.056 22.9947 77.0666 22.7227 77.0773 22.456C77.088 22.1787 77.0986 21.9707 77.1093 21.832L72.5493 29H70.8053V20.424H72.1333V25.656ZM84.5266 29.16C83.7692 29.16 83.0919 29.0053 82.4946 28.696C81.9079 28.3867 81.4439 27.9067 81.1026 27.256C80.7719 26.6053 80.6066 25.7733 80.6066 24.76C80.6066 23.704 80.7826 22.8453 81.1346 22.184C81.4866 21.5227 81.9612 21.0373 82.5586 20.728C83.1666 20.4187 83.8546 20.264 84.6226 20.264C85.0599 20.264 85.4812 20.312 85.8866 20.408C86.2919 20.4933 86.6226 20.6 86.8786 20.728L86.4466 21.896C86.1906 21.8 85.8919 21.7093 85.5506 21.624C85.2092 21.5387 84.8892 21.496 84.5906 21.496C84.0146 21.496 83.5399 21.6187 83.1666 21.864C82.7932 22.1093 82.5159 22.472 82.3346 22.952C82.1532 23.432 82.0626 24.0293 82.0626 24.744C82.0626 25.4267 82.1532 26.008 82.3346 26.488C82.5159 26.968 82.7879 27.3307 83.1506 27.576C83.5132 27.8213 83.9666 27.944 84.5106 27.944C84.9799 27.944 85.3906 27.896 85.7426 27.8C86.1052 27.704 86.4359 27.5867 86.7346 27.448V28.696C86.4466 28.8453 86.1266 28.9573 85.7746 29.032C85.4332 29.1173 85.0172 29.16 84.5266 29.16ZM92.0221 20.28C93.0674 20.28 93.8407 20.5093 94.3421 20.968C94.8434 21.4267 95.0941 22.1573 95.0941 23.16V29H94.0701L93.7981 27.784H93.7341C93.4887 28.0933 93.2327 28.3547 92.9661 28.568C92.7101 28.7707 92.4114 28.92 92.0701 29.016C91.7394 29.112 91.3341 29.16 90.8541 29.16C90.3421 29.16 89.8781 29.0693 89.4621 28.888C89.0567 28.7067 88.7367 28.4293 88.5021 28.056C88.2674 27.672 88.1501 27.192 88.1501 26.616C88.1501 25.7627 88.4861 25.1067 89.1581 24.648C89.8301 24.1787 90.8647 23.9227 92.2621 23.88L93.7181 23.832V23.32C93.7181 22.6053 93.5634 22.1093 93.2541 21.832C92.9447 21.5547 92.5074 21.416 91.9421 21.416C91.4941 21.416 91.0674 21.4853 90.6621 21.624C90.2567 21.752 89.8781 21.9013 89.5261 22.072L89.0941 21.016C89.4674 20.8133 89.9101 20.6427 90.4221 20.504C90.9341 20.3547 91.4674 20.28 92.0221 20.28ZM92.4381 24.856C91.3714 24.8987 90.6301 25.0693 90.2141 25.368C89.8087 25.6667 89.6061 26.088 89.6061 26.632C89.6061 27.112 89.7501 27.464 90.0381 27.688C90.3367 27.912 90.7154 28.024 91.1741 28.024C91.8994 28.024 92.5021 27.8267 92.9821 27.432C93.4621 27.0267 93.7021 26.408 93.7021 25.576V24.808L92.4381 24.856ZM99.1508 20.424V23.992H103.807V20.424H105.215V29H103.807V25.176H99.1508V29H97.7428V20.424H99.1508ZM109.258 25.656C109.258 25.752 109.253 25.8907 109.242 26.072C109.242 26.2427 109.237 26.4293 109.226 26.632C109.216 26.824 109.205 27.0107 109.194 27.192C109.184 27.3627 109.173 27.5013 109.162 27.608L113.754 20.424H115.482V29H114.17V23.944C114.17 23.7733 114.17 23.5493 114.17 23.272C114.181 22.9947 114.192 22.7227 114.202 22.456C114.213 22.1787 114.224 21.9707 114.234 21.832L109.674 29H107.93V20.424H109.258V25.656ZM121.524 20.264C122.26 20.264 122.889 20.424 123.412 20.744C123.945 21.064 124.35 21.5173 124.628 22.104C124.916 22.68 125.06 23.3573 125.06 24.136V24.984H119.188C119.209 25.9547 119.454 26.696 119.924 27.208C120.404 27.7093 121.07 27.96 121.924 27.96C122.468 27.96 122.948 27.912 123.364 27.816C123.79 27.7093 124.228 27.56 124.676 27.368V28.6C124.238 28.792 123.806 28.9307 123.38 29.016C122.953 29.112 122.446 29.16 121.86 29.16C121.049 29.16 120.329 28.9947 119.7 28.664C119.081 28.3333 118.596 27.8427 118.244 27.192C117.902 26.5307 117.732 25.7253 117.732 24.776C117.732 23.8373 117.886 23.032 118.196 22.36C118.516 21.688 118.958 21.1707 119.524 20.808C120.1 20.4453 120.766 20.264 121.524 20.264ZM121.508 21.416C120.836 21.416 120.302 21.6347 119.908 22.072C119.524 22.4987 119.294 23.096 119.22 23.864H123.588C123.588 23.3733 123.513 22.9467 123.364 22.584C123.214 22.2213 122.985 21.9387 122.676 21.736C122.377 21.5227 121.988 21.416 121.508 21.416ZM24.7786 50V38.576H31.5626V39.84H26.2186V43.408H27.9146C29.0559 43.408 29.9412 43.552 30.5706 43.84C31.1999 44.1173 31.6372 44.5013 31.8826 44.992C32.1279 45.472 32.2506 46.0267 32.2506 46.656C32.2506 47.3493 32.1119 47.9467 31.8346 48.448C31.5679 48.9493 31.1306 49.3333 30.5226 49.6C29.9146 49.8667 29.1146 50 28.1226 50H24.7786ZM27.9786 48.768C29.0026 48.768 29.7226 48.5973 30.1386 48.256C30.5546 47.904 30.7626 47.3707 30.7626 46.656C30.7626 46.1653 30.6612 45.776 30.4586 45.488C30.2666 45.1893 29.9466 44.976 29.4986 44.848C29.0612 44.72 28.4746 44.656 27.7386 44.656H26.2186V48.768H27.9786ZM41.8863 45.696C41.8863 46.4107 41.7903 47.0453 41.5983 47.6C41.417 48.144 41.1503 48.608 40.7983 48.992C40.457 49.376 40.0356 49.6693 39.5343 49.872C39.0436 50.064 38.4943 50.16 37.8863 50.16C37.321 50.16 36.7983 50.064 36.3183 49.872C35.8383 49.6693 35.4223 49.376 35.0703 48.992C34.7183 48.608 34.441 48.144 34.2383 47.6C34.0463 47.0453 33.9503 46.4107 33.9503 45.696C33.9503 44.7467 34.1103 43.9467 34.4303 43.296C34.7503 42.6347 35.209 42.1333 35.8063 41.792C36.4036 41.44 37.113 41.264 37.9343 41.264C38.713 41.264 39.3956 41.44 39.9823 41.792C40.5796 42.1333 41.0436 42.6347 41.3743 43.296C41.7156 43.9467 41.8863 44.7467 41.8863 45.696ZM35.4063 45.696C35.4063 46.368 35.4916 46.9547 35.6623 47.456C35.8436 47.9467 36.121 48.3253 36.4943 48.592C36.8676 48.8587 37.3423 48.992 37.9183 48.992C38.4943 48.992 38.969 48.8587 39.3423 48.592C39.7156 48.3253 39.9876 47.9467 40.1583 47.456C40.3396 46.9547 40.4303 46.368 40.4303 45.696C40.4303 45.0133 40.3396 44.432 40.1583 43.952C39.977 43.472 39.6996 43.104 39.3263 42.848C38.9636 42.5813 38.489 42.448 37.9023 42.448C37.0276 42.448 36.393 42.736 35.9983 43.312C35.6036 43.888 35.4063 44.6827 35.4063 45.696ZM49.3498 41.424V42.608H45.5258V50H44.1178V41.424H49.3498ZM58.3394 45.696C58.3394 46.4107 58.2434 47.0453 58.0514 47.6C57.8701 48.144 57.6034 48.608 57.2514 48.992C56.9101 49.376 56.4888 49.6693 55.9874 49.872C55.4968 50.064 54.9474 50.16 54.3394 50.16C53.7741 50.16 53.2514 50.064 52.7714 49.872C52.2914 49.6693 51.8754 49.376 51.5234 48.992C51.1714 48.608 50.8941 48.144 50.6914 47.6C50.4994 47.0453 50.4034 46.4107 50.4034 45.696C50.4034 44.7467 50.5634 43.9467 50.8834 43.296C51.2034 42.6347 51.6621 42.1333 52.2594 41.792C52.8568 41.44 53.5661 41.264 54.3874 41.264C55.1661 41.264 55.8488 41.44 56.4354 41.792C57.0328 42.1333 57.4968 42.6347 57.8274 43.296C58.1688 43.9467 58.3394 44.7467 58.3394 45.696ZM51.8594 45.696C51.8594 46.368 51.9448 46.9547 52.1154 47.456C52.2968 47.9467 52.5741 48.3253 52.9474 48.592C53.3208 48.8587 53.7954 48.992 54.3714 48.992C54.9474 48.992 55.4221 48.8587 55.7954 48.592C56.1688 48.3253 56.4408 47.9467 56.6114 47.456C56.7928 46.9547 56.8834 46.368 56.8834 45.696C56.8834 45.0133 56.7928 44.432 56.6114 43.952C56.4301 43.472 56.1528 43.104 55.7794 42.848C55.4168 42.5813 54.9421 42.448 54.3554 42.448C53.4808 42.448 52.8461 42.736 52.4514 43.312C52.0568 43.888 51.8594 44.6827 51.8594 45.696ZM64.0109 50.16C63.2536 50.16 62.5763 50.0053 61.9789 49.696C61.3923 49.3867 60.9283 48.9067 60.5869 48.256C60.2563 47.6053 60.0909 46.7733 60.0909 45.76C60.0909 44.704 60.2669 43.8453 60.6189 43.184C60.9709 42.5227 61.4456 42.0373 62.0429 41.728C62.6509 41.4187 63.3389 41.264 64.1069 41.264C64.5443 41.264 64.9656 41.312 65.3709 41.408C65.7763 41.4933 66.1069 41.6 66.3629 41.728L65.9309 42.896C65.6749 42.8 65.3763 42.7093 65.0349 42.624C64.6936 42.5387 64.3736 42.496 64.0749 42.496C63.4989 42.496 63.0243 42.6187 62.6509 42.864C62.2776 43.1093 62.0003 43.472 61.8189 43.952C61.6376 44.432 61.5469 45.0293 61.5469 45.744C61.5469 46.4267 61.6376 47.008 61.8189 47.488C62.0003 47.968 62.2723 48.3307 62.6349 48.576C62.9976 48.8213 63.4509 48.944 63.9949 48.944C64.4643 48.944 64.8749 48.896 65.2269 48.8C65.5896 48.704 65.9203 48.5867 66.2189 48.448V49.696C65.9309 49.8453 65.6109 49.9573 65.2589 50.032C64.9176 50.1173 64.5016 50.16 64.0109 50.16ZM74.7864 50H73.3624V42.592H70.8344C70.7278 43.9467 70.5944 45.104 70.4344 46.064C70.2744 47.0133 70.0718 47.7867 69.8264 48.384C69.5811 48.9813 69.2878 49.4187 68.9464 49.696C68.6051 49.9733 68.2051 50.112 67.7464 50.112C67.6078 50.112 67.4691 50.1013 67.3304 50.08C67.2024 50.0693 67.0958 50.0427 67.0104 50V48.944C67.0744 48.9653 67.1438 48.9813 67.2184 48.992C67.2931 49.0027 67.3678 49.008 67.4424 49.008C67.6771 49.008 67.8904 48.912 68.0824 48.72C68.2744 48.528 68.4451 48.2347 68.5944 47.84C68.7544 47.4453 68.8984 46.9493 69.0264 46.352C69.1544 45.744 69.2664 45.0293 69.3624 44.208C69.4584 43.3867 69.5438 42.4587 69.6184 41.424H74.7864V50ZM76.1644 41.424H77.6684L79.5244 46.304C79.6311 46.592 79.7271 46.8693 79.8124 47.136C79.9084 47.4027 79.9938 47.664 80.0684 47.92C80.1431 48.1653 80.2018 48.4053 80.2444 48.64H80.3084C80.3724 48.3733 80.4738 48.0267 80.6124 47.6C80.7511 47.1627 80.8951 46.7253 81.0444 46.288L82.7884 41.424H84.3084L80.6124 51.184C80.4098 51.7173 80.1698 52.1813 79.8924 52.576C79.6258 52.9813 79.2951 53.2907 78.9004 53.504C78.5164 53.728 78.0471 53.84 77.4924 53.84C77.2364 53.84 77.0124 53.824 76.8204 53.792C76.6284 53.7707 76.4631 53.744 76.3244 53.712V52.592C76.4418 52.6133 76.5804 52.6347 76.7404 52.656C76.9111 52.6773 77.0871 52.688 77.2684 52.688C77.5991 52.688 77.8818 52.624 78.1164 52.496C78.3618 52.3787 78.5698 52.2027 78.7404 51.968C78.9111 51.744 79.0551 51.4773 79.1724 51.168L79.6204 50.032L76.1644 41.424ZM95.9527 41.424L92.4167 45.584L96.2567 50H94.6567L90.9447 45.648V50H89.6327V45.648L85.9207 50H84.3207L88.1607 45.584L84.6247 41.424H86.1607L89.6327 45.584V41.424H90.9447V45.584L94.4327 41.424H95.9527ZM100.664 41.264C101.4 41.264 102.03 41.424 102.552 41.744C103.086 42.064 103.491 42.5173 103.768 43.104C104.056 43.68 104.2 44.3573 104.2 45.136V45.984H98.3282C98.3495 46.9547 98.5949 47.696 99.0642 48.208C99.5442 48.7093 100.211 48.96 101.064 48.96C101.608 48.96 102.088 48.912 102.504 48.816C102.931 48.7093 103.368 48.56 103.816 48.368V49.6C103.379 49.792 102.947 49.9307 102.52 50.016C102.094 50.112 101.587 50.16 101 50.16C100.19 50.16 99.4695 49.9947 98.8402 49.664C98.2215 49.3333 97.7362 48.8427 97.3842 48.192C97.0429 47.5307 96.8722 46.7253 96.8722 45.776C96.8722 44.8373 97.0269 44.032 97.3362 43.36C97.6562 42.688 98.0989 42.1707 98.6642 41.808C99.2402 41.4453 99.9069 41.264 100.664 41.264ZM100.648 42.416C99.9762 42.416 99.4429 42.6347 99.0482 43.072C98.6642 43.4987 98.4349 44.096 98.3602 44.864H102.728C102.728 44.3733 102.654 43.9467 102.504 43.584C102.355 43.2213 102.126 42.9387 101.816 42.736C101.518 42.5227 101.128 42.416 100.648 42.416ZM107.791 41.424V44.992H112.447V41.424H113.855V50H112.447V46.176H107.791V50H106.383V41.424H107.791ZM117.899 46.656C117.899 46.752 117.894 46.8907 117.883 47.072C117.883 47.2427 117.878 47.4293 117.867 47.632C117.856 47.824 117.846 48.0107 117.835 48.192C117.824 48.3627 117.814 48.5013 117.803 48.608L122.395 41.424H124.123V50H122.811V44.944C122.811 44.7733 122.811 44.5493 122.811 44.272C122.822 43.9947 122.832 43.7227 122.843 43.456C122.854 43.1787 122.864 42.9707 122.875 42.832L118.315 50H116.571V41.424H117.899V46.656ZM133.796 37.872C133.754 38.4053 133.62 38.8533 133.396 39.216C133.183 39.5787 132.863 39.8507 132.436 40.032C132.01 40.2133 131.455 40.304 130.772 40.304C130.079 40.304 129.519 40.2133 129.092 40.032C128.676 39.8507 128.372 39.584 128.18 39.232C127.988 38.8693 127.871 38.416 127.828 37.872H129.14C129.194 38.448 129.343 38.8373 129.588 39.04C129.844 39.232 130.25 39.328 130.804 39.328C131.295 39.328 131.679 39.2267 131.956 39.024C132.244 38.8107 132.415 38.4267 132.468 37.872H133.796ZM128.18 46.656C128.18 46.752 128.175 46.8907 128.164 47.072C128.164 47.2427 128.159 47.4293 128.148 47.632C128.138 47.824 128.127 48.0107 128.116 48.192C128.106 48.3627 128.095 48.5013 128.084 48.608L132.676 41.424H134.404V50H133.092V44.944C133.092 44.7733 133.092 44.5493 133.092 44.272C133.103 43.9947 133.114 43.7227 133.124 43.456C133.135 43.1787 133.146 42.9707 133.156 42.832L128.596 50H126.852V41.424H128.18V46.656Z" fill="white"/>
</svg>
