<svg width="160" height="43" viewBox="0 0 160 43" fill="none" xmlns="http://www.w3.org/2000/svg">
<rect width="160" height="43" rx="21.5" fill="#675B5B" fill-opacity="0.61"/>
<path d="M59.168 28H57.728V17.84H54.16V16.576H62.72V17.84H59.168V28ZM67.5338 19.264C68.5898 19.264 69.4378 19.632 70.0778 20.368C70.7284 21.104 71.0538 22.2133 71.0538 23.696C71.0538 24.6667 70.9044 25.488 70.6058 26.16C70.3177 26.8213 69.9071 27.3227 69.3738 27.664C68.8511 27.9947 68.2324 28.16 67.5178 28.16C67.0804 28.16 66.6911 28.1013 66.3498 27.984C66.0084 27.8667 65.7151 27.7173 65.4698 27.536C65.2351 27.344 65.0324 27.136 64.8618 26.912H64.7658C64.7871 27.0933 64.8084 27.3227 64.8298 27.6C64.8511 27.8773 64.8618 28.1173 64.8618 28.32V31.84H63.4538V19.424H64.6058L64.7978 20.592H64.8618C65.0324 20.3467 65.2351 20.1227 65.4698 19.92C65.7151 19.7173 66.0031 19.5573 66.3338 19.44C66.6751 19.3227 67.0751 19.264 67.5338 19.264ZM67.2778 20.448C66.7018 20.448 66.2378 20.56 65.8858 20.784C65.5338 20.9973 65.2778 21.3227 65.1178 21.76C64.9578 22.1973 64.8724 22.752 64.8618 23.424V23.696C64.8618 24.4 64.9364 24.9973 65.0858 25.488C65.2351 25.9787 65.4858 26.352 65.8378 26.608C66.2004 26.864 66.6911 26.992 67.3098 26.992C67.8324 26.992 68.2591 26.848 68.5898 26.56C68.9311 26.272 69.1818 25.8827 69.3418 25.392C69.5124 24.8907 69.5978 24.32 69.5978 23.68C69.5978 22.6987 69.4058 21.9147 69.0218 21.328C68.6484 20.7413 68.0671 20.448 67.2778 20.448ZM76.6095 19.264C77.3455 19.264 77.9748 19.424 78.4975 19.744C79.0308 20.064 79.4362 20.5173 79.7135 21.104C80.0015 21.68 80.1455 22.3573 80.1455 23.136V23.984H74.2735C74.2948 24.9547 74.5402 25.696 75.0095 26.208C75.4895 26.7093 76.1562 26.96 77.0095 26.96C77.5535 26.96 78.0335 26.912 78.4495 26.816C78.8762 26.7093 79.3135 26.56 79.7615 26.368V27.6C79.3242 27.792 78.8922 27.9307 78.4655 28.016C78.0388 28.112 77.5322 28.16 76.9455 28.16C76.1348 28.16 75.4148 27.9947 74.7855 27.664C74.1668 27.3333 73.6815 26.8427 73.3295 26.192C72.9882 25.5307 72.8175 24.7253 72.8175 23.776C72.8175 22.8373 72.9722 22.032 73.2815 21.36C73.6015 20.688 74.0442 20.1707 74.6095 19.808C75.1855 19.4453 75.8522 19.264 76.6095 19.264ZM76.5935 20.416C75.9215 20.416 75.3882 20.6347 74.9935 21.072C74.6095 21.4987 74.3802 22.096 74.3055 22.864H78.6735C78.6735 22.3733 78.5988 21.9467 78.4495 21.584C78.3002 21.2213 78.0708 20.9387 77.7615 20.736C77.4628 20.5227 77.0735 20.416 76.5935 20.416ZM81.8808 22.848C81.8808 21.6 82.0034 20.5387 82.2488 19.664C82.5048 18.7787 82.8941 18.0747 83.4168 17.552C83.9501 17.0187 84.6328 16.6613 85.4648 16.48C86.1581 16.3307 86.8354 16.1973 87.4968 16.08C88.1581 15.9627 88.7768 15.856 89.3528 15.76L89.5928 16.992C89.3154 17.0347 89.0061 17.088 88.6648 17.152C88.3234 17.2053 87.9768 17.264 87.6248 17.328C87.2728 17.3813 86.9314 17.44 86.6008 17.504C86.2808 17.5573 85.9981 17.6107 85.7528 17.664C85.4008 17.7387 85.0861 17.8667 84.8088 18.048C84.5314 18.2187 84.2914 18.4533 84.0888 18.752C83.8968 19.0507 83.7421 19.4187 83.6248 19.856C83.5074 20.2933 83.4381 20.8107 83.4168 21.408H83.5128C83.6621 21.2053 83.8648 20.9973 84.1208 20.784C84.3874 20.5707 84.7021 20.3893 85.0648 20.24C85.4381 20.0907 85.8594 20.016 86.3288 20.016C87.0754 20.016 87.6941 20.1813 88.1848 20.512C88.6861 20.832 89.0594 21.28 89.3048 21.856C89.5608 22.432 89.6888 23.104 89.6888 23.872C89.6888 24.8213 89.5234 25.616 89.1927 26.256C88.8621 26.896 88.4034 27.376 87.8168 27.696C87.2301 28.0053 86.5474 28.16 85.7688 28.16C85.1821 28.16 84.6488 28.048 84.1688 27.824C83.6888 27.5893 83.2781 27.248 82.9368 26.8C82.5954 26.352 82.3341 25.7973 82.1528 25.136C81.9714 24.4747 81.8808 23.712 81.8808 22.848ZM85.8808 26.992C86.3501 26.992 86.7554 26.896 87.0968 26.704C87.4488 26.512 87.7208 26.1973 87.9128 25.76C88.1048 25.3227 88.2008 24.7413 88.2008 24.016C88.2008 23.1413 88.0354 22.4533 87.7048 21.952C87.3848 21.44 86.8514 21.184 86.1048 21.184C85.6354 21.184 85.2088 21.2907 84.8248 21.504C84.4408 21.7067 84.1208 21.9413 83.8648 22.208C83.6088 22.4747 83.4274 22.6987 83.3207 22.88C83.3207 23.4027 83.3581 23.9093 83.4328 24.4C83.5074 24.8907 83.6354 25.3333 83.8168 25.728C84.0088 26.112 84.2701 26.4213 84.6008 26.656C84.9421 26.88 85.3688 26.992 85.8808 26.992ZM91.9069 28V19.424H93.3149V22.944H95.5389C96.2855 22.944 96.8989 23.0347 97.3789 23.216C97.8589 23.3973 98.2162 23.6693 98.4509 24.032C98.6855 24.384 98.8029 24.832 98.8029 25.376C98.8029 25.9093 98.6855 26.3733 98.4509 26.768C98.2269 27.1627 97.8695 27.4667 97.3789 27.68C96.8989 27.8933 96.2642 28 95.4749 28H91.9069ZM95.3469 26.864C95.9549 26.864 96.4509 26.7627 96.8349 26.56C97.2189 26.3467 97.4109 25.9787 97.4109 25.456C97.4109 24.9333 97.2349 24.5813 96.8829 24.4C96.5309 24.208 96.0242 24.112 95.3629 24.112H93.3149V26.864H95.3469ZM100.227 28V19.424H101.635V28H100.227Z" fill="white"/>
</svg>
